<?xml version="1.0"?>
<svg width="350" height="270" xmlns="http://www.w3.org/2000/svg" xmlns:svg="http://www.w3.org/2000/svg">
 <!-- Created with SVG-edit - https://github.com/SVG-Edit/svgedit-->
 <defs>
  <filter id="svg_3_blur">
   <feGaussianBlur in="SourceGraphic" stdDeviation="2.9"/>
  </filter>
 </defs>
 <g class="layer">
  <title>Layer 1</title>
  <g id="svg_40">
   <g filter="url(#svg_3_blur)" id="svg_3" opacity="0.85">
    <path d="m104.4753,42.407732c3.11399,-21.314928 26.388,-17.967605 28.81248,-3.740205c9.29156,-12.734154 13.30043,-11.34373 20.67811,-8.827707c4.68211,2.561005 7.77457,4.544189 7.68776,16.234816c-1.21033,2.115999 17.8392,-29.421009 26.5389,-28.712872c8.6997,0.708147 9.75431,6.648911 9.92302,10.584678c1.30416,5.09143 1.1377,2.786355 6.44331,4.297186c7.69007,0.817444 16.61402,-1.3616 22.66653,-2.554171c6.05251,-1.192561 14.57441,10.395067 8.02803,17.097461c-23.339,19.754789 -33.86448,41.306543 -28.4222,43.032191c7.4861,3.574687 2.32643,12.169754 -2.46633,13.727502c12.85815,-8.155536 20.14144,5.582609 18.92479,7.038945c3.21164,-2.241733 9.75639,-6.309939 16.94823,-6.443706c7.19183,-0.133777 21.7084,8.132395 9.61729,20.275427c-23.61033,17.961356 -0.33104,14.632412 7.27269,15.292273c3.34025,0.210878 6.95566,3.378846 9.09715,6.519438c2.3686,-2.637659 5.98838,-5.071532 7.65764,-5.212977c5.17189,-0.294465 9.8896,1.144553 12.5635,7.321736c1.71088,-3.495434 3.5353,-6.297471 10.2422,-6.672647c-1.63373,-5.059937 -5.02584,-4.330951 -0.09631,-10.518677c5.6108,-7.574531 12.07839,-13.417464 17.2261,-9.000734c14.1147,6.07229 7.39584,16.040106 6.3725,18.647264c3.74352,-0.925323 22.24017,-1.267529 18.1058,15.88406c8.95328,-7.536274 4.43922,-6.962371 7.04872,1.325416c5.15056,22.404232 -10.77374,37.212746 -20.09442,39.791258c-5.09004,0.268785 -24.10592,-0.078102 -23.00097,-8.881627c-5.48383,9.564956 -14.33727,9.507 -22.59287,5.105515c-9.299,8.243379 -16.87918,6.282057 -25.31876,1.696664c-3.66512,4.355877 -13.0596,5.796125 -20.73527,-0.05271c-6.78477,27.759805 -25.57822,27.994855 -32.99326,23.251701c-8.56092,-6.200979 -10.8999,-20.004222 -10.27145,-24.111341c-9.93452,9.680899 -24.67291,14.464493 -34.28387,1.352505c-1.87631,2.049304 -3.78162,5.446203 -14.11862,8.854974c2.52195,52.769727 -44.0331,39.296796 -44.91991,24.542847c-4.32442,-16.503323 13.52892,-33.412977 25.69666,-28.043945c-9.93075,-3.614154 -19.57765,-27.717411 2.73592,-41.197186l-1.26256,-39.795404l-51.7477,12.765498c-0.61211,113.155557 3.8817,110.035735 -11.53093,122.709701c-8.20674,8.223184 -29.32431,10.092776 -36.86074,-5.253973c-2.19134,-19.522963 5.72808,-37.35921 32.05284,-34.993143l-0.77538,-95.529701c0.0723,-13.336029 -3.51903,-11.768719 -11.1381,-11.378684c-12.41157,-1.799405 -7.26044,-22.031724 -3.85072,-25.155067c11.17198,-13.901094 18.23112,-13.483039 24.55846,-19.114687c-11.22114,-6.165379 -8.23562,-22.01385 -2.29662,-28.385704c11.46145,-12.138558 34.05038,-11.796095 41.87836,6.22781l-0.00001,0l0.00001,0z" fill="#000000" id="svg_17" stroke="#000000" stroke-width="2"/>
    <path d="m38.79487,252.860565c-7.49392,-1.529291 -10.07805,-12.212574 -5.6102,-18.613034c5.9294,-9.89875 18.61296,-16.571754 28.55068,-10.325892c0.19804,-34.972114 0.08377,-69.946163 0.11404,-104.919151c24.77856,-5.531456 49.61313,-10.754115 74.40034,-16.239785c-0.0537,39.067489 -0.10737,78.134998 -0.16105,117.202487c-3.88338,11.81635 -16.43149,20.010273 -27.3577,16.346206c-6.50493,-2.197256 -8.06441,-11.672009 -4.44219,-17.477309c4.96026,-8.659729 14.19256,-14.605383 23.47398,-12.98333c2.64866,-0.302341 6.54902,4.536542 5.42951,-0.937474c-0.09194,-30.900684 0.22868,-61.809622 -0.23657,-92.703799c-4.04385,-1.694125 -11.23547,2.203683 -16.41317,2.519048c-17.31443,3.802536 -34.66587,7.403568 -51.94054,11.428378c0.52122,34.239041 0.27817,68.499051 0.20058,102.745333c0.91713,7.817487 -2.90122,15.181438 -8.70706,19.256528c-5.01,4.112336 -11.19984,5.594769 -17.30064,4.701802l0,-0.00001l-0.00001,0z" fill="#000000" id="svg_19" stroke="#000000" stroke-width="2"/>
    <path d="m241.46356,112.948162c6.69948,0.918668 6.70552,4.358218 2.05941,5.294313c-4.64611,0.936095 -24.16625,27.538304 -29.16734,46.465839c-5.0011,18.927535 -3.70951,25.102615 -0.18133,30.815044c3.52818,5.712448 10.98435,-3.551248 6.64023,10.224173c-4.34413,13.775431 -18.31907,8.852346 -22.24466,1.469172c-3.92559,-7.383174 -3.51785,-15.115626 0.22405,-31.430151c3.74188,-16.314535 15.59997,-37.064675 15.40162,-37.552729c-0.19835,-0.488084 -1.29416,0.663511 -1.91987,1.381071c-12.77497,19.539577 -23.23464,57.178086 -38.98749,59.045961c-15.75284,1.867886 -14.17485,-12.90122 -11.10092,-12.126914c3.07391,0.774297 7.66228,-6.141782 9.41106,-11.24207l14.76811,-42.800175c-1.48537,0.168385 -2.49747,2.152541 -3.32025,3.389023c-11.97294,19.890303 -24.11652,53.771953 -36.39209,60.311724c-12.27556,6.539792 -25.87396,1.374842 -27.17205,-10.608028c-1.29808,-11.98289 6.67148,-22.180846 7.93744,-17.149972c1.26594,5.030865 8.36555,9.231599 13.64181,6.8682c5.27628,-2.363379 5.63058,-3.23141 7.59399,-4.847135l28.03869,-37.810931c1.53501,-4.11924 8.63228,-5.696251 -1.83141,-7.230798c-10.4637,-1.534548 -19.87345,9.087396 -16.71978,15.904007c3.15365,6.816601 -14.94772,2.871618 -14.95959,-9.884407c-0.01187,-12.756016 6.84199,-16.066867 9.86909,-17.952002c3.02709,-1.885125 12.70315,-2.634594 18.57238,-1.651245c5.86923,0.983359 4.77072,1.39713 12.41493,5.447929c7.64422,4.050789 4.01728,2.223422 10.15442,-1.732987c6.13713,-3.956389 14.58676,-5.365532 19.35793,-3.751602c4.77117,1.61392 8.17277,7.694115 -6.32094,14.881944c-14.49372,7.187829 -13.37089,-7.699838 -16.69419,18.893235c-1.02006,6.477064 -1.33383,8.186692 -3.06017,19.431202c-1.72633,11.24452 -5.38193,16.787899 7.5992,-7.174935c12.98113,-23.962834 24.82643,-37.99229 30.70856,-40.806646c5.88212,-2.814346 8.9797,-4.988818 15.67916,-4.070131l0,0.00002z" fill="#000000" id="svg_23" stroke="#000000" stroke-width="2"/>
    <path d="m231.9392,148.788744c2.64359,-0.305039 11.40909,-0.517533 6.22664,6.055695c-5.18247,6.573209 -7.54045,12.857894 -9.68948,18.397603c-2.14902,5.539709 3.81495,5.336846 10.70063,-6.456591c6.88567,-11.793437 10.66872,-17.937133 12.45598,-18.073549c1.78725,-0.136406 12.28654,0.02079 4.72271,8.003786c-7.56381,7.982996 -11.31585,20.082235 -6.92837,20.223214c4.38748,0.140969 8.98797,-8.67673 9.64769,-10.15345c0.65971,-1.47671 11.14778,-17.480215 16.03813,-17.89098c4.89035,-0.410765 8.16377,6.549879 2.95524,9.945022c-5.20853,3.395133 -0.69432,6.266414 0.67006,10.9065c1.36438,4.640096 2.79122,8.576826 0.8979,14.280853c-1.89331,5.704017 -5.57614,8.092511 -11.64437,8.699038c-6.06822,0.606507 -10.75185,-0.709962 -12.8793,-8.516489c-3.81899,2.829195 -6.76569,8.352181 -11.45696,8.84813c-4.69128,0.49596 -7.03938,-4.656819 -8.00289,-8.968309c-4.57847,2.869258 -6.61694,9.476449 -10.85971,9.088497c-4.24278,-0.387942 -9.87015,-3.179593 -8.36151,-12.341114c1.50863,-9.161541 12.86403,-31.742847 15.50761,-32.047856z" fill="#000000" id="svg_24" stroke="#000000" stroke-width="2"/>
    <path d="m119.83007,35.851177c4.35592,-0.371585 7.05174,3.758139 7.5389,7.379871c0.48717,3.621713 -1.44121,10.72405 -3.22749,13.757824c-1.78627,3.033784 -5.79679,8.520932 -6.11369,9.034974c-0.31689,0.514052 -0.59528,1.784606 0.45774,2.867939c1.05303,1.083343 3.12423,1.419101 3.29113,0.006864c0.1669,-1.412247 0.59538,-1.753986 5.59231,-10.287049c4.99693,-8.533073 8.58688,-12.326156 13.76247,-18.625998c5.1756,-6.299861 9.30751,-2.437573 9.99939,-2.201828c0.69189,0.235725 3.91515,2.800807 0.98874,5.071384c-2.92642,2.270567 -6.21819,6.11632 -15.19972,18.968163c-8.98151,12.851843 -11.94102,31.480708 -11.93813,37.050243c0.00288,5.569535 -10.15022,1.830947 -10.84012,-0.376575c-0.68989,-2.207532 -1.76957,-4.64084 1.63319,-14.675937c1.14472,-3.699616 2.98455,-8.358072 1.81005,-9.894604c-1.17448,-1.536561 -3.49147,-4.377352 -5.40741,-2.050613c-1.91595,2.326718 -8.51146,5.606027 -12.24415,2.313715c-3.73266,-3.292313 -2.28685,-10.419398 2.83398,-11.833807c5.12082,-1.414409 6.53311,4.281385 10.23039,-2.888461c3.69729,-7.169846 5.38071,-10.124834 4.14081,-16.1657c-0.91344,-1.222923 -2.99621,-1.843723 -2.74031,-3.668749c0.2559,-1.825045 1.07601,-3.410071 5.43192,-3.781656z" fill="#000000" id="svg_25" stroke="#000000" stroke-width="2"/>
    <path d="m293.24765,150.86969c5.04302,-6.735662 2.84581,-2.581934 7.87554,-2.11958c5.02974,0.462354 5.27281,1.389979 0.96097,6.143756c-4.31183,4.753768 -6.2914,10.275414 -8.76653,15.358978c-2.47514,5.083564 0.04984,5.39137 4.52571,3.594207c4.47588,-1.797173 12.06796,-25.544229 27.50953,-26.299967c15.44157,-0.755748 7.86376,16.870088 6.02452,19.948041c-1.83925,3.077953 -5.53319,5.499983 -8.20443,3.902212c-2.67126,-1.597772 -3.83944,-1.66902 0.04631,-2.545651c3.88574,-0.876611 5.79643,-7.944857 4.84788,-11.150051c-0.94854,-3.205184 -4.68744,-2.224196 -6.87564,-0.363551c-2.1882,1.860645 -6.98444,11.785561 -3.50732,16.872508c3.47713,5.086947 8.94748,1.795388 13.4423,-1.1523c4.49482,-2.947707 4.84068,-6.017061 8.62064,-10.672581c3.77995,-4.65553 2.87918,-2.95343 1.84386,1.767049c-1.0353,4.720489 -10.86576,31.148501 -24.78899,27.764338c-13.92323,-3.384163 -14.11615,-12.694726 -14.57678,-12.343693c-0.46064,0.351043 -7.53378,13.784616 -14.63004,12.134611c-7.09624,-1.649995 -7.9419,-10.184427 -5.16865,-18.122331c2.77324,-7.937894 5.77809,-15.980324 10.82112,-22.715996z" fill="#000000" id="svg_31" stroke="#000000" stroke-width="2"/>
    <path d="m307.59374,128.041103c1.49313,-1.604745 2.61567,-2.739031 5.03522,-1.521108c2.41956,1.217904 5.24984,3.258241 3.84475,4.965766c-1.4051,1.707525 -8.53871,10.036059 -9.68132,12.022367c-1.14262,1.986299 -1.71392,2.108263 -2.91829,0.940876c-1.20437,-1.167386 -3.0727,-2.578701 -2.03817,-6.847529c1.03453,-4.268818 4.2647,-7.955639 5.75781,-9.560374z" fill="#000000" id="svg_32" stroke="#000000" stroke-width="2"/>
    <path d="m193.88531,37.226753c5.05271,3.736892 21.21657,1.713943 27.45932,-0.525131c6.24276,-2.239094 13.93103,3.671328 7.39816,7.078978c-6.53288,3.407641 -28.19648,28.843832 -30.52409,40.055024c-2.32761,11.211192 3.20509,7.082361 1.19103,14.103859c-2.82335,8.186107 -24.55464,4.32491 -17.93881,-13.06771c6.61584,-17.3926 15.82144,-24.214092 17.58152,-27.272971c2.16066,-2.449238 3.90394,-4.947505 6.5629,-7.52691c2.65896,-2.579395 -1.642,-1.396188 -2.78671,-1.108835c-1.14472,0.287353 -6.88307,1.295331 -10.04135,-0.162275c-3.15829,-1.457596 -3.31504,-5.296257 -3.31352,-4.988054c0.00152,0.308193 -0.64112,-10.322827 4.41157,-6.585955l-0.00001,-0.00002l-0.00001,0z" fill="#000000" id="svg_34" stroke="#000000" stroke-width="2"/>
    <path d="m187.22058,27.221622c4.99361,-2.701776 5.75416,0.863181 3.12113,3.753744c-2.63302,2.890564 -24.75556,38.063548 -33.50799,54.453943c-8.75245,16.390385 -7.99985,30.345379 -11.88787,19.683253c-3.88802,-10.662106 37.2811,-75.189165 42.27473,-77.890941z" fill="#000000" id="svg_35" stroke="#000000" stroke-width="2"/>
    <path d="m79.36029,49.551581c-1.7119,2.216915 -5.15481,2.340903 -5.76015,0.189433c-0.60531,-2.15145 -0.03186,-2.654244 -0.12744,-3.297342c0.45666,-1.005568 1.79475,-4.981111 9.11176,-5.507274c7.31701,-0.526163 8.64447,9.260641 3.63196,15.083607c-5.01253,5.822986 -9.30291,9.576333 -25.6467,19.117583c-16.34379,9.54124 -16.41815,14.206629 -17.17214,17.819683c-0.75401,3.613053 -1.10445,9.085244 4.42844,8.383673c5.53288,-0.701561 6.25503,-11.622562 15.89776,-3.718284c9.64274,7.904259 17.31019,2.794548 19.94389,-0.456016c2.63372,-3.250574 2.9629,-13.680476 0.76462,-10.663753c-2.19828,3.016723 -7.3701,1.566834 -15.41987,-0.210471c-8.04976,-1.777295 -11.1295,3.425971 -13.57205,4.560159c-2.44253,1.134187 -1.14693,-0.947105 0.76462,-2.525624c1.91156,-1.578509 11.85165,-6.653146 21.44129,-12.768434c9.58963,-6.115288 18.93502,-11.856413 21.21827,-21.362579c2.28325,-9.506166 -2.78238,-15.726685 -7.86925,-17.223353c-5.08687,-1.496677 -11.04453,-1.672055 -16.0252,-0.105241c-4.98066,1.566814 -9.6746,7.869185 -10.13125,11.540701c-0.45665,3.671506 0.13805,7.98611 2.70803,10.874214c2.56999,2.888104 11.67112,1.321289 13.03044,-1.78897c1.35934,-3.110269 0.49488,-10.158648 -1.21702,-7.941713l-0.00001,0z" fill="#000000" id="svg_36" stroke="#000000" stroke-width="2"/>
    <ellipse cx="105.060199" cy="68.74" fill="#000000" id="svg_37" rx="2.587427" ry="1.145901" stroke="#000000" stroke-width="2"/>
    <path d="m264.74039,165.242651c-0.4907,1.253384 -1.33243,2.433883 -0.38398,2.81262c0.94846,0.378757 3.82895,2.754029 1.97,4.112822c-1.85895,1.358783 -3.1036,1.85509 -2.21585,4.331456c0.88775,2.476376 5.58642,2.518056 7.22128,-0.249859c1.63486,-2.767905 0.58226,-8.37795 -0.88169,-12.093159c-1.46395,-3.715219 -2.09773,-2.949235 -3.12358,-2.231942c-1.02587,0.717292 -2.09548,2.064688 -2.58617,3.318062l-0.00001,0z" fill="#000000" id="svg_38" stroke="#000000" stroke-width="2"/>
    <path d="m199.0393,119.796246c-1.64777,1.111711 -3.66172,2.872729 -0.2877,2.744844c3.37401,-0.127896 3.87095,-0.177084 5.59719,-0.944477c1.72625,-0.767363 1.67393,-2.302119 -0.41848,-2.538221c-2.0924,-0.236122 -3.24324,-0.373867 -4.89101,0.737854z" fill="#000000" id="svg_39" stroke="#000000" stroke-width="2"/>
   </g>
   <polygon fill="#FF0000" id="svg_16" stroke="#000000" stroke-width="2"/>
   <polygon fill="#FF0000" id="svg_13" stroke="#000000" stroke-width="2"/>
   <polygon fill="#FF0000" id="svg_11" stroke="#000000" stroke-width="2"/>
   <polygon fill="#FF0000" id="svg_6" stroke="#000000" stroke-width="2"/>
   <polygon fill="#FF0000" id="svg_1" stroke="#000000" stroke-width="2"/>
   <g id="svg_49">
    <path d="m88.5304,29.36468c3.25877,-21.57603 27.6148,-18.1877 30.15199,-3.78602c9.72353,-12.89015 13.91878,-11.48269 21.63945,-8.93585c4.89978,2.59238 8.13601,4.59986 8.04516,16.4337c-1.26659,2.14192 18.66856,-29.78142 27.77271,-29.06461c9.10415,0.71682 10.20779,6.73036 10.38435,10.71434c1.36479,5.1538 1.19059,2.82049 6.74286,4.34983c8.04758,0.82746 17.38641,-1.37828 23.72031,-2.58546c6.33389,-1.20717 15.25198,10.52241 8.40125,17.3069c-24.42404,19.99679 -35.43885,41.81255 -29.74356,43.55934c7.83413,3.61848 2.43459,12.31883 -2.58099,13.89566c13.45593,-8.25544 21.07782,5.651 19.80461,7.12517c3.36095,-2.26919 10.20997,-6.38723 17.73616,-6.52264c7.52618,-0.13541 22.71764,8.23202 10.06441,20.5238c-24.70799,18.18139 -0.34644,14.81166 7.6108,15.47961c3.49554,0.21346 7.27903,3.42023 9.52008,6.5993c2.47871,-2.66997 6.26678,-5.13366 8.01364,-5.27684c5.41234,-0.29807 10.34938,1.15858 13.14759,7.41143c1.79042,-3.53825 3.69966,-6.37462 10.71836,-6.75439c-1.70968,-5.12192 -5.25949,-4.384 -0.10079,-10.64753c5.87165,-7.66732 12.63993,-13.58183 18.02695,-9.11099c14.7709,6.14667 7.73968,16.2366 6.66877,18.87569c3.91755,-0.93666 23.27412,-1.28305 18.94754,16.07864c9.36952,-7.62859 4.6456,-7.04766 7.37642,1.34165c5.39001,22.67869 -11.27462,37.66861 -21.02862,40.2787c-5.32668,0.27208 -25.22661,-0.07905 -24.07029,-8.99042c-5.73878,9.68212 -15.00382,9.62346 -23.64323,5.16806c-9.73131,8.34436 -17.6639,6.35901 -26.49584,1.71744c-3.83551,4.40924 -13.66675,5.86713 -21.69926,-0.05335c-7.1002,28.09986 -26.76736,28.33779 -34.52713,23.53653c-8.95893,-6.27694 -11.40664,-20.24927 -10.74898,-24.4067c-10.39638,9.79949 -25.81996,14.64168 -35.87774,1.36907c-1.96354,2.07441 -3.95743,5.51292 -14.775,8.96345c2.63919,53.41616 -46.08022,39.77818 -47.00826,24.8435c-4.52547,-16.70549 14.15789,-33.82229 26.89131,-28.38749c-10.39244,-3.65842 -20.48782,-28.05695 2.86311,-41.70185l-1.32125,-40.2829l-54.15348,12.92188c-0.64057,114.54171 4.06216,111.38367 -12.06701,124.21289c-8.58827,8.32392 -30.68761,10.21642 -38.57441,-5.31833c-2.29322,-19.76212 5.99438,-37.81686 33.54299,-35.42181l-0.81143,-96.69994c0.07567,-13.49939 -3.68263,-11.91288 -11.65591,-11.51807c-12.98859,-1.82145 -7.59798,-22.30161 -4.02974,-25.46322c11.69137,-14.07138 19.07869,-13.6482 25.70019,-19.34884c-11.74281,-6.24091 -8.6185,-22.28352 -2.40339,-28.73343c11.9943,-12.28725 35.6334,-11.9406 43.82531,6.3041l-0.00001,0z" fill="#ed7d3d" id="svg_46" stroke="#000000" stroke-width="2"/>
    <path d="m19.79646,242.39556c-7.84231,-1.54802 -10.54658,-12.36218 -5.87102,-18.84104c6.20506,-10.02001 19.47829,-16.77476 29.87801,-10.45238c0.20725,-35.40053 0.08767,-70.80301 0.11935,-106.20441c25.93052,-5.59922 51.91966,-10.88586 77.85924,-16.43873c-0.05619,39.54607 -0.11236,79.09215 -0.16853,118.63822c-4.06393,11.9611 -17.1954,20.2554 -28.62958,16.54645c-6.80734,-2.22418 -8.43932,-11.81499 -4.64871,-17.69141c5.19087,-8.76581 14.85238,-14.7843 24.5653,-13.14237c2.7718,-0.30605 6.85349,4.59211 5.68193,-0.94896c-0.09622,-31.27922 0.23931,-62.56679 -0.24757,-93.83942c-4.23185,-1.71488 -11.75781,2.23068 -17.17622,2.5499c-18.11939,3.84912 -36.27751,7.49426 -54.35528,11.56838c0.54545,34.65847 0.2911,69.33816 0.2099,104.00396c0.95977,7.91325 -3.0361,15.36741 -9.11185,19.49242c-5.24292,4.16272 -11.72053,5.66331 -18.10496,4.7594l0,-0.00001l-0.00001,0z" fill="#ffffff" id="svg_33" stroke="#000000" stroke-width="2"/>
    <path d="m231.88732,100.76923c7.01094,0.92992 7.01726,4.41161 2.15515,5.35917c-4.86211,0.94756 -25.28975,27.87565 -30.52335,47.03505c-5.2336,19.1594 -3.88196,25.41012 -0.18976,31.19253c3.69221,5.78242 11.49502,-3.59475 6.94894,10.34942c-4.54609,13.94417 -19.17073,8.96078 -23.27882,1.48716c-4.1081,-7.47361 -3.6814,-15.30079 0.23446,-31.81517c3.91585,-16.51438 16.32522,-37.51871 16.11765,-38.01275c-0.20757,-0.49406 -1.35432,0.67164 -2.00912,1.39799c-13.36889,19.77894 -24.31483,57.87852 -40.80004,59.76928c-16.4852,1.89076 -14.83384,-13.05926 -11.61701,-12.27547c3.21682,0.78378 8.01851,-6.21702 9.84859,-11.37979l15.45469,-43.32447c-1.55443,0.17044 -2.61358,2.17891 -3.47462,3.43054c-12.52956,20.13395 -25.2377,54.43065 -38.08397,61.05054c-12.84626,6.6199 -27.07685,1.39168 -28.43529,-10.73798c-1.35843,-12.12968 6.98164,-22.45256 8.30645,-17.36006c1.3248,5.0925 8.75447,9.34469 14.27603,6.95234c5.52157,-2.39233 5.89235,-3.271 7.94704,-4.90651l29.34222,-38.27412c1.60637,-4.1697 9.0336,-5.76603 -1.91656,-7.31937c-10.95016,-1.55335 -20.79737,9.19871 -17.49709,16.09883c3.30027,6.9001 -15.64264,2.90679 -15.65506,-10.00549c-0.01243,-12.91228 7.16007,-16.26369 10.3279,-18.17192c3.16783,-1.90822 13.29373,-2.66687 19.43582,-1.67147c6.1421,0.9954 4.99252,1.41424 12.99211,5.51466c7.9996,4.10042 4.20404,2.25066 10.6265,-1.75421c6.42245,-4.00486 15.26491,-5.43126 20.25789,-3.79756c4.99299,1.63369 8.55273,7.78837 -6.6148,15.06425c-15.16754,7.27588 -13.99251,-7.79416 -17.47031,19.12467c-1.06748,6.55641 -1.39584,8.28698 -3.20244,19.66924c-1.80659,11.38226 -5.63214,16.99355 7.95249,-7.26283c13.58463,-24.25638 25.98062,-38.4577 32.13621,-41.30653c6.15559,-2.84882 9.39717,-5.04993 16.4081,-4.11999l0,0.00002z" fill="#ffffff" id="svg_12" stroke="#000000" stroke-width="2"/>
    <path d="m221.92016,137.04886c2.76649,-0.30877 11.93951,-0.52387 6.51612,6.12988c-5.4234,6.65373 -7.89101,13.0154 -10.13995,18.62297c-2.24893,5.60758 3.99231,5.40223 11.19811,-6.53568c7.20579,-11.93791 11.16471,-18.15686 13.03506,-18.29495c1.87034,-0.13808 12.85775,0.02105 4.94228,8.10183c-7.91546,8.08079 -11.84193,20.32824 -7.25048,20.47095c4.59146,0.1427 9.40583,-8.78302 10.09622,-10.27783c0.69038,-1.4948 11.66604,-17.69435 16.78375,-18.11015c5.1177,-0.41579 8.5433,6.63012 3.09263,10.06685c-5.45068,3.43673 -0.7266,6.34318 0.70121,11.04011c1.42781,4.69694 2.92098,8.68189 0.93964,14.45579c-1.98133,5.77389 -5.83537,8.19165 -12.18572,8.8056c-6.35034,0.61394 -11.25171,-0.71866 -13.47807,-8.62081c-3.99653,2.86385 -7.08023,8.45449 -11.9896,8.95652c-4.90937,0.50203 -7.36664,-4.71387 -8.37494,-9.07817c-4.79133,2.9044 -6.92457,9.59253 -11.36459,9.19983c-4.44002,-0.3927 -10.32901,-3.21855 -8.75024,-12.4923c1.57877,-9.27377 13.46209,-32.13169 16.22857,-32.44044z" fill="#ffffff" id="svg_20" stroke="#000000" stroke-width="2"/>
    <path d="m104.59903,22.72781c4.55843,-0.37614 7.37957,3.80418 7.88938,7.47027c0.50982,3.66608 -1.50821,10.85542 -3.37753,13.92636c-1.86932,3.07095 -6.06629,8.62532 -6.39792,9.14566c-0.33162,0.52034 -0.62296,1.80646 0.47902,2.90307c1.10199,1.09661 3.26948,1.43648 3.44414,0.00694c0.17465,-1.42954 0.62306,-1.77547 5.85229,-10.41306c5.22924,-8.6376 8.98609,-12.47715 14.4023,-18.85417c5.41621,-6.37703 9.74022,-2.46743 10.46426,-2.2288c0.72406,0.23862 4.09717,2.83512 1.03471,5.13351c-3.06247,2.29838 -6.50728,6.19125 -15.90636,19.20052c-9.39907,13.00928 -12.49617,31.86635 -12.49314,37.50411c0.00301,5.63777 -10.62211,1.85338 -11.34408,-0.38119c-0.72197,-2.23457 -1.85184,-4.69769 1.70912,-14.85571c1.19793,-3.74494 3.1233,-8.46046 1.8942,-10.01582c-1.22909,-1.55538 -3.65379,-4.43097 -5.65881,-2.07573c-2.00502,2.35522 -8.90716,5.6747 -12.81338,2.34206c-3.9062,-3.33264 -2.39317,-10.54704 2.96573,-11.97877c5.35889,-1.43174 6.83684,4.33383 10.70601,-2.92385c3.86917,-7.25767 5.63086,-10.24886 4.33331,-16.36373c-0.9559,-1.2379 -3.1355,-1.8663 -2.8677,-3.71369c0.26779,-1.8474 1.12603,-3.45184 5.68445,-3.82798z" fill="#ffffff" id="svg_4" stroke="#000000" stroke-width="2"/>
    <path d="m286.07887,139.1553c5.27747,-6.81817 2.97811,-2.61356 8.24168,-2.14555c5.26357,0.46802 5.51795,1.40701 1.00565,6.21902c-4.51229,4.812 -6.58389,10.40129 -9.17409,15.54713c-2.59021,5.14584 0.05215,5.45741 4.73611,3.63823c4.68396,-1.81918 12.629,-25.85714 28.78846,-26.62214c16.15945,-0.765 8.22935,17.07675 6.3046,20.19241c-1.92476,3.11566 -5.79043,5.56736 -8.58586,3.95001c-2.79544,-1.61734 -4.01793,-1.68946 0.04847,-2.57683c4.06639,-0.88735 6.0659,-8.04219 5.07326,-11.28664c-0.99264,-3.24445 -4.90537,-2.25144 -7.1953,-0.36801c-2.28992,1.88344 -7.30914,11.92994 -3.67037,17.0792c3.63878,5.14926 9.36345,1.81738 14.06724,-1.16642c4.70378,-2.98381 5.06572,-6.09077 9.02141,-10.80332c3.95569,-4.71256 3.01304,-2.98961 1.92959,1.7887c-1.08344,4.77831 -11.37092,31.53007 -25.94145,28.10445c-14.57052,-3.42562 -14.77241,-12.85024 -15.25446,-12.4949c-0.48205,0.35534 -7.88403,13.95347 -15.31019,12.28326c-7.42615,-1.67021 -8.31113,-10.30919 -5.40895,-18.34433c2.90217,-8.03514 6.04672,-16.17609 11.3242,-22.99427z" fill="#ffffff" id="svg_26" stroke="#000000" stroke-width="2"/>
    <path d="m301.09192,116.04706c1.56254,-1.6244 2.73727,-2.77258 5.26931,-1.53974c2.53205,1.23283 5.49391,3.29816 4.02349,5.0266c-1.47042,1.72844 -8.93568,10.159 -10.13141,12.16964c-1.19574,2.01063 -1.7936,2.13409 -3.05396,0.9524c-1.26036,-1.18168 -3.21555,-2.61029 -2.13292,-6.93141c1.08262,-4.32111 4.46296,-8.0531 6.02549,-9.67749z" fill="#ffffff" id="svg_27" stroke="#000000" stroke-width="2"/>
    <path d="m182.09713,24.12024c5.28761,3.78267 22.20294,1.73494 28.73592,-0.53157c6.53298,-2.26652 14.57869,3.71631 7.7421,7.1657c-6.8366,3.44938 -29.50735,29.19717 -31.94317,40.5457c-2.43582,11.34853 3.3541,7.16912 1.2464,14.27663c-2.95461,8.28639 -25.6962,4.37789 -18.77279,-13.22779c6.92341,-17.60566 16.55698,-24.51071 18.39889,-27.60707c2.26111,-2.47924 4.08544,-5.00811 6.86801,-7.61911c2.78258,-2.61099 -1.71833,-1.41329 -2.91626,-1.12242c-1.19794,0.29087 -7.20307,1.3112 -10.50818,-0.16426c-3.30512,-1.47545 -3.46916,-5.36114 -3.46757,-5.04916c0.0016,0.31197 -0.67092,-10.44928 4.61667,-6.66663l-0.00001,-0.00002l-0.00001,0z" fill="#ffffff" id="svg_10" stroke="#000000" stroke-width="2"/>
    <path d="m175.12255,13.99254c5.22577,-2.73487 6.02168,0.87376 3.26624,3.79973c-2.75544,2.92597 -25.90646,38.52983 -35.0658,55.121c-9.15935,16.59117 -8.37176,30.71711 -12.44054,19.92438c-4.06878,-10.79272 39.01432,-76.11024 44.2401,-78.84511z" fill="#ffffff" id="svg_9" stroke="#000000" stroke-width="2"/>
    <path d="m62.24779,36.59604c-1.79149,2.24408 -5.39446,2.36958 -6.02794,0.19176c-0.63346,-2.17781 -0.03335,-2.68676 -0.13337,-3.33774c0.47789,-1.01788 1.87819,-5.04213 9.53537,-5.57473c7.65718,-0.53261 9.04636,9.37408 3.80081,15.26838c-5.24556,5.89431 -9.73541,9.69364 -26.83903,19.35177c-17.10362,9.65812 -17.18143,14.38066 -17.97048,18.03797c-0.78906,3.65732 -1.15579,9.19654 4.63432,8.48638c5.79011,-0.71016 6.54583,-11.76494 16.63686,-3.76384c10.09103,8.00109 18.11495,2.82879 20.87109,-0.4616c2.75616,-3.29039 3.10065,-13.84806 0.80017,-10.79438c-2.30048,3.05368 -7.71274,1.58603 -16.13675,-0.21305c-8.424,-1.79907 -11.64692,3.46794 -14.20302,4.61602c-2.55609,1.14808 -1.20025,-0.95871 0.80017,-2.55656c2.00043,-1.59785 12.40264,-6.73465 22.4381,-12.92485c10.03546,-6.1902 19.81532,-12.00165 22.20472,-21.62427c2.3894,-9.62262 -2.91173,-15.91934 -8.23509,-17.43434c-5.32336,-1.51501 -11.558,-1.69254 -16.77022,-0.10653c-5.21222,1.58601 -10.12438,7.96558 -10.60226,11.68207c-0.47788,3.71649 0.14447,8.08394 2.83393,11.00743c2.68947,2.92348 12.21371,1.33747 13.63623,-1.81089c1.42253,-3.14837 0.51789,-10.28309 -1.2736,-8.039l-0.00001,0z" fill="#ffffff" id="svg_2" stroke="#000000" stroke-width="2"/>
    <ellipse cx="89.142501" cy="56.01952" fill="#d66700" id="svg_5" rx="2.707718" ry="1.159938" stroke="#000000" stroke-width="2"/>
    <path d="m256.2463,153.70433c-0.51352,1.26874 -1.39438,2.4637 -0.40183,2.84708c0.99255,0.38339 4.00696,2.78776 2.06158,4.1632c-1.94537,1.37543 -3.24789,1.87781 -2.31886,4.38452c0.92902,2.50671 5.84613,2.5489 7.557,-0.25292c1.71086,-2.80182 0.60933,-8.48058 -0.92268,-12.24131c-1.53201,-3.76073 -2.19526,-2.98536 -3.2688,-2.25928c-1.07356,0.72608 -2.1929,2.08998 -2.7064,3.35871l-0.00001,0z" fill="#ff7f00" id="svg_21" stroke="#000000" stroke-width="2"/>
    <path d="m187.49073,107.70121c-1.72438,1.12533 -3.83195,2.90792 -0.30108,2.77847c3.53087,-0.12947 4.05092,-0.17926 5.85741,-0.95605c1.8065,-0.77677 1.75175,-2.33032 -0.43793,-2.56932c-2.18968,-0.23901 -3.39402,-0.37844 -5.1184,0.7469z" fill="#ff7f00" id="svg_14" stroke="#000000" stroke-width="2"/>
   </g>
   <g id="svg_30"/>
   <g id="svg_29"/>
   <g id="svg_28"/>
   <g id="svg_18"/>
   <g id="svg_15"/>
   <g id="svg_7">
    <g id="svg_8"/>
   </g>
   <polygon fill="none" id="svg_22" stroke="#000000" stroke-width="2"/>
  </g>
 </g>
</svg>