<?xml version="1.0" encoding="utf-8"?>
<svg viewBox="91.432 27.286 62.768 60.031" xmlns="http://www.w3.org/2000/svg" xmlns:bx="https://boxy-svg.com">
  <defs>
    <radialGradient gradientUnits="userSpaceOnUse" cx="194.082" cy="136.01" r="4.01" id="gradient-7">
      <stop offset="0" style="stop-color: rgba(10, 48, 88, 1)"/>
      <stop offset="1" style="stop-color: rgba(0, 0, 0, 1)"/>
    </radialGradient>
    <radialGradient gradientUnits="userSpaceOnUse" cx="206.092" cy="136" r="4" id="gradient-8">
      <stop offset="0" style="stop-color: rgba(10, 48, 88, 1)"/>
      <stop offset="1" style="stop-color: rgba(0, 0, 0, 1)"/>
    </radialGradient>
    <radialGradient gradientUnits="userSpaceOnUse" cx="616.757" cy="241.558" r="22.064" id="gradient-9" gradientTransform="matrix(1.505364, 0.298931, -0.385021, 1.96636, -218.942439, -420.018193)">
      <stop offset="0" style="stop-color: rgba(10, 48, 88, 1)"/>
      <stop offset="1" style="stop-color: rgb(182, 209, 239);"/>
    </radialGradient>
  </defs>
  <g>
    <g style="" transform="matrix(0.090834, 0, 0, 0.082567, 106.466225, 40.610039)">
      <rect x="51.984" y="95.502" width="25.881" height="219.179" style="paint-order: fill; fill: rgb(10, 48, 88);"/>
      <rect x="56.836" y="226.524" width="101.097" height="19.411" style="paint-order: fill; fill: rgb(10, 48, 88);"/>
      <rect x="154.698" y="96.524" width="25.881" height="219.179" style="paint-order: fill; fill: rgb(10, 48, 88);" bx:origin="0.5 0.502383"/>
      <rect x="196.827" y="218.032" width="13.749" height="94.627" style="paint-order: fill; fill: rgb(10, 48, 88);"/>
      <rect x="222.837" y="218.267" width="13.749" height="94.627" style="paint-order: fill; fill: rgb(10, 48, 88);"/>
      <rect x="250.247" y="105.601" width="25.881" height="211.091" style="paint-order: fill; fill: rgb(10, 48, 88);"/>
      <rect x="186.062" y="95.803" width="153.668" height="18.602" style="paint-order: fill; fill: rgb(10, 48, 88);"/>
    </g>
    <circle style="paint-order: fill; fill: url(#gradient-7);" cx="194.082" cy="136.01" r="4.01" transform="matrix(0.19377, 0, 0, 0.185381, 87.35746, 30.791151)"/>
    <circle style="paint-order: fill; fill: url(#gradient-8);" cx="206.092" cy="136" r="4" transform="matrix(0.19377, 0, 0, 0.185381, 87.35746, 30.791151)"/>
    <path d="M 624.259 238.74 m -22.064 0 a 22.064 22.482 0 1 0 44.128 0 a 22.064 22.482 0 1 0 -44.128 0 Z M 624.259 238.74 m -19.714 0 a 19.714 17.601 0 0 1 39.428 0 a 19.714 17.601 0 0 1 -39.428 0 Z" style="paint-order: fill; fill: url(#gradient-9);" transform="matrix(-0.54455, 0.838728, -0.860344, -0.511258, 668.15457, -344.224429)" bx:shape="ring 624.259 238.74 19.714 17.601 22.064 22.482 1@432d5822"/>
  </g>
</svg>