<?xml version="1.0"?>
<svg width="43" height="46" xmlns="http://www.w3.org/2000/svg" xmlns:svg="http://www.w3.org/2000/svg">
 <!-- Created with SVG-edit - https://github.com/SVG-Edit/svgedit-->
 <g class="layer">
  <title>Layer 1</title>
  <g id="svg_9">
   <path d="m8.667361,1.999999l33.334359,0c0.000094,0 0.00018,0.000034 0.000238,0.000101c0.000066,0.000068 0.000102,0.000152 0.000102,0.000254l-0.00034,34.999508c0,3.866067 -2.984933,7.000136 -6.667028,7.000136l-33.334362,0l0,0c-0.000185,0 -0.000333,-0.000159 -0.000333,-0.000352l0.000333,-34.999508l0,0c0,-3.866069 2.984931,-7.000137 6.667031,-7.000137l0,-0.000001z" fill="#5fbf00" id="svg_6" stroke="#000000" stroke-width="2"/>
   <path d="m9.824883,19.43642l7.99725,0l0,-7.906659l8.20366,0l0,7.906659l7.99725,0l0,8.110731l-7.99725,0l0,7.906658l-8.20366,0l0,-7.906658l-7.99725,0l0,-8.110731z" fill="#ffffff" id="svg_2" stroke="#ffffff" stroke-width="2"/>
  </g>
 </g>
</svg>