<?xml version="1.0"?>
<svg width="323" height="290" xmlns="http://www.w3.org/2000/svg" xmlns:svg="http://www.w3.org/2000/svg">
 <!-- Created with SVG-edit - https://github.com/SVG-Edit/svgedit-->
 <g class="layer">
  <title>Layer 1</title>
  <g id="svg_9"/>
  <g id="svg_10"/>
  <g id="svg_11"/>
  <g id="svg_18">
   <path d="m184.261819,290.225183c1.92826,0.016737 96.113743,-100.24799 97.099572,-105.869263c0.985829,-5.621273 -0.489659,-9.091897 -0.734488,-13.637846" fill="#ffaaaa" id="svg_8" stroke="#000000" stroke-width="3"/>
   <path d="m279.408703,173.502437l-96.459242,-13.397757l0.801223,130.133848l95.658019,-116.736092z" fill="#ffaaaa" id="svg_17" stroke="#000000" stroke-opacity="0" stroke-width="3"/>
   <path d="m55.329767,164.002562c1.027079,12.132628 1.315765,32.330187 3.081239,36.397881c1.765474,4.067694 130.499192,97.269935 124.862909,89.047117c0.244829,-43.320218 0.489659,-86.640437 0.734488,-129.960655" fill="#ffaaaa" id="svg_7" stroke="#000000" stroke-width="3"/>
   <path d="m48.965509,76.841532c-15.703352,15.515064 -48.121929,45.364612 -47.110056,46.545192c1.011873,1.18058 82.262623,61.504012 123.393933,92.256019c-0.349011,0.908905 38.68302,-38.506861 58.02453,-57.760291c14.444924,23.531972 41.934821,68.301602 43.334775,70.595913c1.399954,2.294311 99.83433,-106.624975 96.21789,-104.289414l-31.582972,-59.364744c9.548341,-2.406678 22.296389,-5.888681 28.64502,-7.220035c6.348631,-1.331354 -127.35548,-53.207231 -128.535348,-53.74916c-1.179868,-0.541929 -19.096681,1.604453 -28.645022,2.40668" fill="#ffaaaa" id="svg_2" stroke="#000000" stroke-width="3"/>
   <path d="m162.811104,6.245619c-8.603304,-1.599094 -24.344422,-5.8865 -25.809913,-4.797285c-1.465492,1.089215 -123.8302,66.057072 -121.924959,67.387003c1.90524,1.329933 23.993264,5.348178 35.989896,8.022265l131.473299,80.222626l107.969692,-94.662701c-40.641654,-18.451204 -82.885752,-36.902407 -123.527404,-55.353611" fill="#ffaaaa" id="svg_3" stroke="#000000" stroke-width="3"/>
   <path d="m51.168972,76.039305l110.8048,-69.777616l-110.8048,69.777616z" fill="none" id="svg_6" stroke="#000000" stroke-width="3"/>
   <path d="m165.002847,127.373251l30.022871,16.871357l-30.022871,-16.871357z" fill="none" id="svg_5" stroke="#000000" stroke-width="3"/>
   <path d="m165.014568,5.848013l-0.102845,121.549841l-15.424242,8.022263" fill="none" id="svg_4" stroke="#000000" stroke-width="3"/>
  </g>
 </g>
</svg>