<?xml version="1.0"?>
<svg width="35" height="36" xmlns="http://www.w3.org/2000/svg" xmlns:svg="http://www.w3.org/2000/svg">
 <!-- Created with SVG-edit - https://github.com/SVG-Edit/svgedit-->
 <g class="layer">
  <title>Layer 1</title>
  <path d="m33.499985,30.114335l-8.582953,-8.852382c1.156278,-1.966506 1.834386,-4.267181 1.835591,-6.73432c-0.001204,-7.196442 -5.651308,-13.025151 -12.625108,-13.027635c-6.975005,0.002485 -12.627517,5.831193 -12.627517,13.026393c0,7.191473 5.652512,13.020182 12.627517,13.020182c2.393254,0 4.623907,-0.699395 6.53056,-1.89197l8.585362,8.853624l4.256548,-4.393892zm-27.183368,-15.587944c0.007227,-4.449794 3.496536,-8.047394 7.809693,-8.057332c4.310748,0.009938 7.802466,3.607538 7.809693,8.057332c-0.008431,4.447309 -3.498945,8.044909 -7.809693,8.054848c-4.313157,-0.009938 -7.802466,-3.607538 -7.809693,-8.054848z" fill="#000000" id="svg_1" stroke="#000000" stroke-opacity="0" stroke-width="3"/>
 </g>
</svg>